<svg xmlns="http://www.w3.org/2000/svg" viewBox="0 0 600 600" width="1024" height="1024">
  <rect x="0" y="0" width="600" height="600" fill="#0B1462"/>
  <g transform="translate(0.000000,600.000000) scale(0.100000,-0.100000)"
fill="#FFFFFF" stroke="none">
<path d="M3930 4339 c-206 -27 -467 -156 -604 -297 l-38 -40 48 -7 c195 -28
344 -69 423 -117 20 -12 81 -66 137 -119 121 -115 160 -134 264 -127 129 10
244 88 302 206 30 61 33 74 33 162 -1 84 -4 101 -28 147 -15 29 -40 67 -56 86
-34 38 -117 81 -185 97 -71 16 -212 20 -296 9z"/>
<path d="M2483 4056 c-23 -8 -57 -23 -76 -35 -43 -27 -120 -108 -142 -151 -26
-50 -30 -135 -11 -219 9 -40 86 -415 172 -833 95 -465 163 -776 175 -800 71
-139 296 -150 382 -18 51 77 54 99 31 245 l-6 40 79 29 c113 41 201 89 272
149 217 183 266 432 137 691 -25 50 -43 92 -41 95 3 2 17 -1 31 -8 16 -7 61
-11 106 -10 93 2 85 7 205 -139 53 -64 102 -112 131 -130 l47 -27 316 0 316 0
36 28 c20 15 48 48 63 73 22 37 26 54 22 98 -6 69 -47 132 -108 163 -43 22
-57 23 -261 26 -175 2 -219 5 -234 17 -10 8 -68 74 -129 147 -76 89 -117 147
-128 181 -20 56 -72 113 -128 142 -51 26 -174 57 -450 115 -124 25 -295 62
-380 82 -292 65 -351 72 -427 49z m439 -743 c59 -32 199 -177 246 -255 43 -73
60 -152 43 -208 -19 -63 -84 -128 -166 -166 -97 -45 -175 -67 -180 -51 -2 7
-34 169 -71 361 -49 256 -64 350 -55 355 21 14 133 -9 183 -36z"/>
<path d="M1745 2900 c-134 -24 -236 -79 -340 -184 -126 -127 -185 -267 -185
-441 0 -163 60 -304 180 -426 88 -89 171 -139 285 -170 104 -28 266 -23 364
11 84 30 198 108 261 178 58 64 122 188 145 277 19 76 19 192 -1 275 -51 221
-237 408 -457 465 -77 19 -190 26 -252 15z m240 -334 c67 -33 138 -110 159
-173 20 -60 20 -166 0 -226 -22 -64 -92 -140 -162 -174 -47 -22 -71 -27 -137
-27 -68 -1 -89 3 -137 27 -72 35 -141 111 -163 178 -24 72 -18 189 13 249 83
158 270 222 427 146z"/>
<path d="M4005 2889 c-22 -6 -78 -28 -125 -51 -109 -52 -228 -168 -276 -268
-57 -118 -66 -155 -66 -285 -1 -132 14 -194 74 -306 119 -225 396 -359 646
-314 247 44 450 235 506 475 18 76 20 197 5 272 -43 210 -242 417 -455 473
-65 17 -243 19 -309 4z m305 -331 c111 -57 166 -153 164 -290 0 -54 -7 -79
-33 -132 -56 -113 -150 -170 -286 -170 -105 0 -167 27 -234 100 -59 64 -81
124 -81 218 0 144 98 271 237 306 68 17 161 4 233 -32z"/>
</g>
</svg>
